PLEASE SEED!!!


I WANT TO SEE YOU CRY BITCH!




Format                                   : MPEG-4
Format profile                           : Base Media / Version 2
Codec ID                                 : mp42
File size                                : 17.4 MiB
Duration                                 : 3mn 39s
Overall bit rate mode                    : Variable
Overall bit rate                         : 664 Kbps

Video
ID                                       : 2
Format                                   : AVC
Format/Info                              : Advanced Video Codec
Format profile                           : Baseline@L2.1
Format settings, CABAC                   : No
Format settings, ReFrames                : 1 frame
Codec ID                                 : avc1
Codec ID/Info                            : Advanced Video Coding
Duration                                 : 3mn 39s
Bit rate                                 : 540 Kbps
Maximum bit rate                         : 1 237 Kbps
Width                                    : 480 pixels
Height                                   : 270 pixels
Display aspect ratio                     : 16:9
Frame rate mode                          : Constant
Frame rate                               : 29.917 fps
Color space                              : YUV
Chroma subsampling                       : 4:2:0
Bit depth                                : 8 bits
Scan type                                : Progressive
Bits/(Pixel*Frame)                       : 0.139
Stream size                              : 14.1 MiB (81%)

Audio
ID                                       : 1
Format                                   : AAC
Format/Info                              : Advanced Audio Codec
Format profile                           : LC
Codec ID                                 : 40
Duration                                 : 3mn 39s
Bit rate mode                            : Variable
Bit rate                                 : 121 Kbps
Maximum bit rate                         : 308 Kbps
Channel(s)                               : 2 channels
Channel positions                        : Front: L R
Sampling rate                            : 44.1 KHz
Compression mode                         : Lossy
Stream size                              : 3.18 MiB (18%)